<svg width="15" height="19" viewBox="0 0 15 19" fill="none" xmlns="http://www.w3.org/2000/svg">
<path d="M14.2582 6.87769H13.1188V5.35858C13.1188 2.42685 10.7338 0.041748 7.802 0.041748C4.87024 0.041748 2.48517 2.42685 2.48517 5.35858V6.87769H1.34585C1.13593 6.87769 0.966064 7.04755 0.966064 7.25747V16.7518C0.966064 17.5896 1.64734 18.2709 2.48517 18.2709H13.1189C13.9567 18.2709 14.6379 17.5896 14.6379 16.7518V7.25747C14.6379 7.04755 14.4681 6.87769 14.2582 6.87769ZM8.93912 14.811C8.95098 14.9182 8.91651 15.0258 8.84456 15.1063C8.7726 15.1867 8.66949 15.2327 8.56158 15.2327H7.04247C6.93455 15.2327 6.83144 15.1867 6.75949 15.1063C6.68753 15.0258 6.65303 14.9182 6.66492 14.811L6.9045 12.6567C6.51546 12.3737 6.28293 11.926 6.28293 11.435C6.28293 10.5972 6.96421 9.91587 7.80204 9.91587C8.63987 9.91587 9.32115 10.5972 9.32115 11.435C9.32115 11.926 9.08862 12.3737 8.69958 12.6567L8.93912 14.811ZM10.8402 6.87769H4.76382V5.35858C4.76382 3.68335 6.12677 2.32039 7.802 2.32039C9.47724 2.32039 10.8402 3.68335 10.8402 5.35858V6.87769Z" fill="#31BE00"/>
</svg>
