<svg width="19" height="11" viewBox="0 0 19 11" fill="none" xmlns="http://www.w3.org/2000/svg">
<path fill-rule="evenodd" clip-rule="evenodd" d="M13.3484 0.835078C13.1985 0.684473 13.199 0.440808 13.3496 0.290837C13.5002 0.140866 13.7439 0.141379 13.8938 0.291983L18.3889 4.806C18.4785 4.89606 18.5144 5.01939 18.4966 5.13606C18.5134 5.25234 18.4769 5.37481 18.3872 5.46408L13.8732 9.95912C13.7226 10.1091 13.479 10.1086 13.329 9.95797C13.179 9.80737 13.1795 9.5637 13.3301 9.41373L17.3457 5.41508L1.13676 5.38095C0.924223 5.3805 0.75229 5.20784 0.752738 4.9953C0.753186 4.78276 0.925845 4.61083 1.13838 4.61127L17.1423 4.64498L13.3484 0.835078Z" fill="white"/>
</svg>
