<svg width="119" height="35" viewBox="0 0 119 35" fill="none" xmlns="http://www.w3.org/2000/svg">
<g clip-path="url(#clip0)">
<path fill-rule="evenodd" clip-rule="evenodd" d="M43.2395 9.97083C43.2395 6.27941 45.3799 3.88322 49.2135 3.88322C50.4077 3.83573 51.5967 4.06844 52.6876 4.56322L52.1765 5.91512C51.2372 5.56986 50.2446 5.39716 49.2454 5.40512C46.9054 5.38893 45.0605 6.67607 45.0605 9.80893C45.0605 13.0065 46.9692 14.3908 49.5649 14.3908C50.4887 14.402 51.4082 14.2626 52.2883 13.978L52.7036 15.3704C51.6103 15.7905 50.4461 15.9885 49.2774 15.9532C45.3001 15.9532 43.2395 13.5651 43.2395 9.97083ZM53.7419 10.7804C53.7419 8.92655 54.0933 6.01226 55.1315 5.03274C56.042 4.17464 58.4699 3.59179 61.2972 3.0656L61.5767 4.61988C59.0609 5.04893 56.8327 5.4456 56.2896 5.97988C55.8099 6.65808 55.5327 7.46173 55.4909 8.29512C56.4341 7.77191 57.4906 7.49378 58.5658 7.4856C60.7301 7.4856 62.1038 8.56226 62.1038 11.3066C62.1038 14.5365 60.235 15.9775 57.7431 15.9775C55.2673 15.9775 53.7419 14.4232 53.7419 10.7804ZM60.3707 11.3713C60.3707 9.93845 59.7558 8.82941 58.1185 8.82941C57.1775 8.86363 56.259 9.13041 55.443 9.60655C55.427 9.89798 55.4111 10.3351 55.4111 10.6265C55.4111 13.3304 56.2177 14.5851 57.8709 14.5851C59.8276 14.5851 60.3707 12.9337 60.3707 11.3713ZM63.5254 11.4766C63.5254 7.89845 65.3384 6.55465 67.6066 6.55465C70.1303 6.55465 71.1925 8.1656 71.1925 11.1123V11.7194H65.2585C65.2745 14.1075 66.6322 14.5851 68.2135 14.5851C69.0566 14.5816 69.8941 14.4478 70.6974 14.1885L70.9929 15.5323C70.014 15.8725 68.9847 16.0395 67.95 16.0261C65.2585 16.0261 63.5254 14.9656 63.5254 11.4766ZM69.4035 10.5132C69.4035 8.91036 68.8285 7.86607 67.5027 7.86607C66.3127 7.86607 65.4262 8.74036 65.3064 10.5132H69.4035ZM73.0055 6.83798H74.8025V7.50179C75.478 6.90543 76.3425 6.57504 77.2384 6.57084C79.3708 6.57084 80.8243 8.06845 80.8243 11.0799C80.8243 14.7713 78.644 15.9289 76.2161 15.9289C75.7444 15.9399 75.2724 15.9237 74.8025 15.8804V19.2156H73.0055V6.83798ZM79.0753 11.1608C79.0753 9.5175 78.5003 8.04417 76.7592 8.04417C76.0568 8.07979 75.3786 8.31548 74.8025 8.72417V14.4556C75.2575 14.5504 75.7198 14.6045 76.1841 14.6175C78.2527 14.6175 79.0753 13.1765 79.0753 11.1608ZM82.3178 10.7804C82.3178 8.92655 82.6692 6.01226 83.7075 5.03274C84.618 4.17464 87.0459 3.59179 89.8731 3.0656L90.1527 4.61988C87.6369 5.04893 85.4086 5.4456 84.8656 5.97988C84.3859 6.65808 84.1087 7.46173 84.0669 8.29512C85.0101 7.77191 86.0665 7.49378 87.1417 7.4856C89.3061 7.4856 90.6798 8.56226 90.6798 11.3066C90.6798 14.5365 88.8109 15.9775 86.3191 15.9775C83.8273 15.9775 82.3178 14.4232 82.3178 10.7804ZM88.9467 11.3713C88.9467 9.93845 88.3317 8.82941 86.6945 8.82941C85.7535 8.86363 84.835 9.13041 84.019 9.60655C84.003 9.89798 83.987 10.3351 83.987 10.6265C83.987 13.3304 84.7937 14.5851 86.4469 14.5851C88.4036 14.5851 88.9467 12.9337 88.9467 11.3713ZM91.7899 13.3951C91.7899 11.1123 93.8105 10.6427 95.3759 10.6265L97.3406 10.5942V9.62274C97.3406 8.37607 96.7176 8.04417 95.3919 8.04417C94.5322 8.04335 93.6787 8.19119 92.8681 8.48131L92.5007 7.16988C93.5067 6.75303 94.5846 6.54387 95.6714 6.55465C97.8358 6.55465 99.0257 7.3156 99.0257 9.15322V13.8727C99.044 14.099 99.1586 14.306 99.3396 14.4397C99.5206 14.5734 99.7501 14.6206 99.9682 14.5689L99.8324 15.8965C99.7188 15.9157 99.6041 15.9266 99.489 15.9289C98.5625 15.9289 97.66 15.6456 97.4923 14.8361C96.6786 15.5497 95.645 15.9533 94.5692 15.9775C92.9001 15.9775 91.7899 15.0627 91.7899 13.3951ZM97.3406 13.7918V11.7032L95.4238 11.7923C94.1859 11.8246 93.4751 12.3508 93.4751 13.2818C93.4751 14.1885 94.138 14.5042 95.0165 14.5042C95.8404 14.4838 96.6436 14.2376 97.3406 13.7918ZM101.446 6.83798H103.179V10.6104H107.428V6.83798H109.161V15.9046H107.428V11.9865H103.179V15.9046H101.446V6.83798ZM111.293 6.83798H113.026V15.9046H111.293V6.83798ZM115.654 14.2694L113.09 11.1932L116.684 6.83798H118.633L114.959 11.0637L116.748 13.047C117.322 13.8032 118.102 14.3719 118.992 14.6823L118.697 16.0018C117.471 15.9374 116.346 15.2966 115.654 14.2694ZM35.4127 17.1513C35.2826 26.967 27.3952 34.855 17.7104 34.855C8.02561 34.855 0.138273 26.967 0.00817871 17.1513C0.00817871 16.7546 0.0241519 16.358 0.0481116 15.9694L10.7661 22.1461L33.464 9.06417C34.7482 11.5609 35.4168 14.3357 35.4127 17.1513ZM10.7661 17.6451L0.790863 11.8975C0.589951 12.5367 0.429887 13.1884 0.311669 13.8485L10.7661 19.8713L32.4896 7.35607C32.1333 6.81334 31.7466 6.29169 31.3315 5.79369L10.7661 17.6451ZM29.9898 4.33655C29.4948 3.86315 28.9749 3.41726 28.4324 3.00084L10.7661 13.1846L2.33227 8.31941C2.01309 8.8801 1.72513 9.45847 1.46972 10.0518L10.7661 15.4108L29.9898 4.33655ZM10.7661 11.0637L26.6434 1.91607C25.9776 1.52403 25.2866 1.17785 24.5749 0.879883L10.7661 8.82941L4.61643 5.29179C4.1781 5.77422 3.7649 6.27952 3.37851 6.8056L10.7661 11.0637Z" fill="#299D37"/>
<path fill-rule="evenodd" clip-rule="evenodd" d="M43.2953 26.307C43.2953 22.6156 45.5395 20.2922 49.2533 20.2922C53.1587 20.2922 54.9717 22.8827 54.9717 26.3394C54.9717 29.9741 52.8632 32.3946 48.9817 32.3946C45.2041 32.3946 43.2953 29.9418 43.2953 26.307ZM53.1667 26.3232C53.1667 23.7165 51.8809 21.7413 49.1495 21.7413C46.2982 21.7413 45.0843 23.7165 45.0843 26.2908C45.0843 28.7922 46.2503 30.9375 49.0376 30.9375C52.0007 30.9375 53.1667 28.9299 53.1667 26.3232ZM56.7686 23.3118H58.4299V27.1489H62.535V23.3118H64.276V32.3784H62.535V28.5251H58.4299V32.3784H56.7686V23.3118ZM65.6018 31.1965C66.3213 30.9817 66.9398 30.5101 67.3429 29.8689C67.838 28.9379 68.1575 26.4365 68.2533 23.3118H74.0436V32.3784H72.3984V24.6718H69.7788C69.5312 27.8289 69.2197 29.7556 68.6207 30.8646C68.0627 31.7828 67.1604 32.4316 66.1209 32.6618L65.6018 31.1965ZM75.6968 29.9337C75.6968 27.6427 77.7254 27.1813 79.2988 27.1651L81.2715 27.1327V26.1532C81.2715 24.9065 80.6405 24.5746 79.3147 24.5746C78.4507 24.5753 77.5926 24.7203 76.775 25.0037L76.4156 23.6922C77.4239 23.2738 78.5048 23.0645 79.5943 23.077C81.7666 23.077 82.9566 23.846 82.9566 25.6837V30.4194C82.9749 30.6456 83.0895 30.8526 83.2705 30.9863C83.4515 31.12 83.681 31.1672 83.899 31.1156L83.7633 32.4432C83.6497 32.4624 83.5349 32.4732 83.4198 32.4756C82.4934 32.4756 81.5829 32.1922 81.4152 31.3827C80.5983 32.0962 79.5622 32.4997 78.4841 32.5241C76.807 32.5241 75.6968 31.6175 75.6968 29.9337ZM81.2715 30.3384V28.2418L79.3467 28.3227C78.1008 28.3632 77.39 28.8894 77.39 29.8203C77.3875 30.2159 77.5579 30.5923 77.8553 30.8484C78.1527 31.1046 78.5466 31.2142 78.9314 31.1479C79.7686 31.0938 80.5763 30.8143 81.2715 30.3384ZM85.5523 23.3118H87.1895V28.857L87.1416 30.0713L87.9243 28.8408L91.7818 23.3118H93.5229V32.3784H91.7818V26.8656L91.8297 25.6189L91.055 26.8818L87.1895 32.3784H85.5523V23.3118ZM86.7982 20.1465L87.5409 19.3208C88.0081 19.9392 88.7293 20.3062 89.4976 20.3165C90.2706 20.3068 90.9969 19.9402 91.4703 19.3208L92.1971 20.1465C91.6207 21.0974 90.5986 21.6768 89.4976 21.6768C88.3966 21.6768 87.3745 21.0974 86.7982 20.1465ZM95.815 23.3118H97.5561V27.1489H101.813V23.3118H103.554V32.3784H101.813V28.5251H97.5561V32.3784H95.815V23.3118Z" fill="#F59726"/>
</g>
<defs>
<clipPath id="clip0">
<rect width="119" height="34" fill="white" transform="translate(0 0.879883)"/>
</clipPath>
</defs>
</svg>
